# xmcd CD database file
#
# Track frame offsets:
#	150
#	18049
#	35909
#	61431
#	79172
#	106366
#	122209
#	147592
#	173989
#	197127
#	222525
#	242121
#	267904
#
# Disc length: 3825 seconds
#
# Revision: 0
# Processed by: cddbd v1.5.2PL0 Copyright (c) Steve Scherf et al.
# Submitted via: CDex 1.70beta2
#
DISCID=c80eef0d
DTITLE=Bob Stroger - Bob is Back in Town
DYEAR=2006
DGENRE=Blues
TTITLE0=What Goes On In The Dark
TTITLE1=I'm A Busy Man
TTITLE2=Bob Is Back In Town
TTITLE3=Don't You Lie To Me
TTITLE4=Indigo Bunting
TTITLE5=Just A Bad Boy
TTITLE6=Something Strange
TTITLE7=Standed In St. Louis
TTITLE8=Blind Man Blues
TTITLE9=I Gotta Move
TTITLE10=Jazz Man Blues
TTITLE11=Key To The Highway
TTITLE12=Blind Man Blues
EXTD=YEAR: 2006
EXTT0=
EXTT1=
EXTT2=
EXTT3=
EXTT4=
EXTT5=
EXTT6=
EXTT7=
EXTT8=
EXTT9=
EXTT10=
EXTT11=
EXTT12=
PLAYORDER=
